<svg xmlns="http://www.w3.org/2000/svg" version="1.1" xmlns:xlink="http://www.w3.org/1999/xlink" xmlns:svgjs="http://svgjs.dev/svgjs" width="32" height="32"><svg width="32" height="32" viewBox="0 0 32 32" fill="none" xmlns="http://www.w3.org/2000/svg">
<g clip-path="url(#clip0_156_888)">
<rect width="32" height="32" rx="6" fill="#6637EE"></rect>
<g clip-path="url(#clip1_156_888)">
<path fill-rule="evenodd" clip-rule="evenodd" d="M7.066 16.1869C7.75566 15.5765 8.68693 15.069 10.7 13.9941L14.5975 11.9131C14.8369 11.7854 15.1269 11.7882 15.367 11.9206L20.3562 14.672C20.5964 14.8045 20.7535 15.0482 20.7731 15.3188L21.093 19.7256C21.2581 22.0016 21.3257 23.06 21.1775 23.969L21.0929 23.9643C20.7201 23.9437 20.3552 23.921 19.9971 23.8832C19.2637 23.8055 18.6657 23.673 18.2238 23.4446C17.6165 23.1306 17.2067 22.6435 16.6409 21.9245L16.5764 21.8425C16.4427 21.6722 16.2981 21.4881 16.1394 21.2991C15.8046 20.9004 15.6372 20.701 15.3845 20.7231C15.1317 20.7452 14.9981 20.9875 14.7309 21.4719L6.37495 36.624C6.1586 37.0163 6.05046 37.2124 6.10707 37.4026C6.16361 37.5926 6.36295 37.7025 6.76133 37.9222L13.3119 41.5347C13.8925 41.8548 14.6177 41.6538 14.9371 41.0863C14.9391 41.0825 14.9412 41.0788 14.9433 41.075L21.3856 29.393C22.0716 28.1492 22.5917 27.2066 22.9596 26.3478C23.0676 26.096 23.1619 25.8531 23.2429 25.6133C23.2447 25.6076 23.2465 25.6021 23.2483 25.5964C23.338 25.3302 23.4121 25.066 23.4715 24.7966C23.7711 23.4372 23.6701 22.0485 23.5046 19.7719L22.9173 11.677C22.8424 10.6451 22.7769 9.74117 22.6234 9.0493C22.462 8.32195 22.1393 7.51705 21.303 7.0559C20.4668 6.59475 19.6139 6.75127 18.9127 7.00294C18.2456 7.24228 17.4461 7.66918 16.5336 8.15652L9.37392 11.9792C7.36024 13.0541 6.13195 13.7097 5.14207 14.6884C4.94647 14.8819 4.76313 15.0849 4.58629 15.3019C4.58192 15.3071 4.57761 15.3123 4.57334 15.3176C4.40323 15.5269 4.23808 15.751 4.07266 15.9938C3.56814 16.7331 3.06978 17.6319 2.42533 18.8007C2.39565 18.8546 2.3656 18.9091 2.33524 18.9641L-4.0758 30.5895C-4.39264 31.164 -4.17633 31.8904 -3.59282 32.2122L2.95776 35.8246C3.35615 36.0443 3.55549 36.1543 3.74632 36.1007C3.93737 36.0471 4.04551 35.851 4.26186 35.4587L12.6178 20.3065C12.885 19.8222 13.0186 19.5799 12.9023 19.3543C12.7862 19.1287 12.5282 19.0935 12.0124 19.0232C11.7677 18.9897 11.5351 18.9658 11.3196 18.9435L11.2158 18.9328C10.306 18.8379 9.67519 18.7512 9.08561 18.4051C8.65659 18.1533 8.22542 17.7182 7.76848 17.1395C7.54546 16.8568 7.33146 16.5603 7.11516 16.256L7.066 16.1869Z" fill="#FBF7F2"></path>
</g>
</g>
<defs>
<clipPath id="SvgjsClipPath1003">
<rect width="32" height="32" rx="6" fill="white"></rect>
</clipPath>
<clipPath id="SvgjsClipPath1002">
<rect width="38.6098" height="38.0077" fill="white" transform="translate(5.35419 -4) rotate(28.8754)"></rect>
</clipPath>
</defs>
</svg><style>@media (prefers-color-scheme: light) { :root { filter: none; } }
@media (prefers-color-scheme: dark) { :root { filter: none; } }
</style></svg>