<svg width="1221" height="173" viewBox="0 0 1221 173" fill="none" xmlns="http://www.w3.org/2000/svg">
<path d="M1218.9 176.995C1217.89 187.605 1208.8 198.454 1191.79 209.347C1173.84 220.837 1147.68 231.976 1115 242.617C1049.67 263.89 958.727 283.031 856.43 299.096C651.855 331.224 402.209 351 222 351C41.8049 351 -121.259 330.977 -239.212 298.643C-298.203 282.473 -345.797 263.254 -378.596 241.997C-411.483 220.683 -429 197.66 -429 174C-429 149.559 -424.098 126.75 -411.27 106.245C-398.441 85.7382 -377.579 67.3675 -345.379 51.9825C-280.886 21.1688 -171.269 2.5 9 2.5C189.096 2.5 433.652 46.0811 662.491 89.7146C687.372 94.4587 712.066 99.2033 736.471 103.892C824.253 120.758 908.28 136.902 983.709 149.706C1078.93 165.871 1160.6 176.739 1218.9 176.995Z" fill="#00FF72" stroke="#39332D" stroke-width="4"/>
</svg>
