<svg width="1163" height="173" viewBox="0 0 1163 173" fill="none" xmlns="http://www.w3.org/2000/svg">
<path d="M2229 211C2229 222.53 2222.37 234.09 2209.03 245.558C2195.71 257.015 2175.95 268.159 2150.31 278.828C2099.05 300.161 2024.75 319.416 1932.78 335.602C1748.89 367.969 1494.76 388 1214 388C933.306 388 605.303 351.765 361.17 307.158C239.086 284.851 138.077 260.468 74.4672 237.509C42.5817 226.001 20.3972 214.952 9.57824 204.882C4.15921 199.838 1.98283 195.405 2.28812 191.581C2.58487 187.865 5.29663 183.926 11.6552 179.946C197.547 162.145 374.665 125.035 545.21 89.3017C566.607 84.8186 587.9 80.3572 609.094 75.9583C799.415 36.4565 981.73 2 1159.5 2C1440.22 2 1707.96 30.0248 1905.48 70.3874C2004.25 90.5714 2085.38 113.824 2141.77 138.161C2169.98 150.334 2191.89 162.735 2206.72 175.087C2221.59 187.48 2229 199.536 2229 211Z" fill="#00FF72" stroke="#39332D" stroke-width="4"/>
</svg>
